<svg aria-hidden="true" style="position:absolute;width:0;height:0;overflow:hidden" xmlns="http://www.w3.org/2000/svg">
  <defs>
    <symbol id="icon-logo" viewBox="0 0 33 32">
      <path fill-rule="evenodd" clip-rule="evenodd"
        d="M4.6185 27.3798C6.57317 29.3332 9.7145 29.3332 15.9998 29.3332C22.2852 29.3332 25.4278 29.3332 27.3798 27.3798C29.3332 25.4292 29.3332 22.2852 29.3332 15.9998C29.3332 9.7145 29.3332 6.57184 27.3798 4.6185C25.4292 2.6665 22.2852 2.6665 15.9998 2.6665C9.7145 2.6665 6.57184 2.6665 4.6185 4.6185C2.6665 6.57317 2.6665 9.7145 2.6665 15.9998C2.6665 22.2852 2.6665 25.4278 4.6185 27.3798ZM12.6665 11.6665C11.8095 11.6665 10.9716 11.9206 10.259 12.3968C9.54642 12.873 8.99101 13.5497 8.66303 14.3415C8.33505 15.1334 8.24923 16.0046 8.41643 16.8452C8.58364 17.6858 8.99635 18.4579 9.60237 19.064C10.2084 19.67 10.9805 20.0827 11.8211 20.2499C12.6617 20.4171 13.533 20.3313 14.3248 20.0033C15.1166 19.6753 15.7934 19.1199 16.2695 18.4073C16.7457 17.6947 16.9998 16.8569 16.9998 15.9998C16.9998 15.7346 17.1052 15.4803 17.2927 15.2927C17.4803 15.1052 17.7346 14.9998 17.9998 14.9998C18.2651 14.9998 18.5194 15.1052 18.7069 15.2927C18.8945 15.4803 18.9998 15.7346 18.9998 15.9998C18.9998 17.2525 18.6284 18.4769 17.9325 19.5184C17.2366 20.56 16.2474 21.3717 15.0902 21.8511C13.9329 22.3304 12.6595 22.4558 11.4309 22.2115C10.2024 21.9671 9.07389 21.3639 8.18816 20.4782C7.30243 19.5924 6.69924 18.464 6.45486 17.2354C6.21049 16.0069 6.33591 14.7334 6.81527 13.5762C7.29462 12.4189 8.10638 11.4298 9.14789 10.7339C10.1894 10.0379 11.4139 9.6665 12.6665 9.6665C12.9317 9.6665 13.1861 9.77186 13.3736 9.9594C13.5611 10.1469 13.6665 10.4013 13.6665 10.6665C13.6665 10.9317 13.5611 11.1861 13.3736 11.3736C13.1861 11.5611 12.9317 11.6665 12.6665 11.6665ZM23.6665 15.9998C23.6665 17.1491 23.21 18.2513 22.3973 19.064C21.5846 19.8766 20.4824 20.3332 19.3332 20.3332C19.068 20.3332 18.8136 20.4385 18.6261 20.6261C18.4385 20.8136 18.3332 21.068 18.3332 21.3332C18.3332 21.5984 18.4385 21.8527 18.6261 22.0403C18.8136 22.2278 19.068 22.3332 19.3332 22.3332C20.5858 22.3332 21.8103 21.9617 22.8518 21.2658C23.8933 20.5699 24.7051 19.5808 25.1844 18.4235C25.6638 17.2662 25.7892 15.9928 25.5448 14.7643C25.3004 13.5357 24.6972 12.4072 23.8115 11.5215C22.9258 10.6358 21.7973 10.0326 20.5687 9.7882C19.3402 9.54382 18.0668 9.66924 16.9095 10.1486C15.7522 10.628 14.7631 11.4397 14.0672 12.4812C13.3713 13.5227 12.9998 14.7472 12.9998 15.9998C12.9998 16.2651 13.1052 16.5194 13.2927 16.7069C13.4803 16.8945 13.7346 16.9998 13.9998 16.9998C14.2651 16.9998 14.5194 16.8945 14.7069 16.7069C14.8945 16.5194 14.9998 16.2651 14.9998 15.9998C14.9998 14.8506 15.4564 13.7484 16.269 12.9357C17.0817 12.123 18.1839 11.6665 19.3332 11.6665C20.4824 11.6665 21.5846 12.123 22.3973 12.9357C23.21 13.7484 23.6665 14.8506 23.6665 15.9998Z"
        fill="#633CFF" />
    </symbol>
    <symbol id="icon-arrow-right" viewBox="0 0 32 32">
      <path d="M5.334 14.666v2.668h16L14 24.666l1.894 1.894L26.454 16 15.894 5.44 14 7.334l7.334 7.332h-16z" />
    </symbol>
    <symbol id="icon-changes-saved" viewBox="0 0 32 32">
      <path
        d="M31.2 4.8h-3a.6.6 0 0 0-.6.6V12a2.4 2.4 0 0 1-2.4 2.4H13.221c-.64 0-1.165-.49-1.221-1.115v-.005A1.2 1.2 0 0 1 13.197 12H24.6a.6.6 0 0 0 .6-.6v-6a.6.6 0 0 0-.6-.6H13.689c-.661 0-1.258.269-1.689.704L5.504 12a2.37 2.37 0 0 0-.704 1.689V31.2a2.4 2.4 0 0 0 2.4 2.4h24a2.4 2.4 0 0 0 2.4-2.4v-24a2.4 2.4 0 0 0-2.4-2.4zm-12 22.8-.088.001a4.8 4.8 0 1 1 .092-9.599h-.005a4.8 4.8 0 0 1 .004 9.598h-.005z" />
      <path
        d="M26 4h-2.501a.5.5 0 0 0-.499.501V10a2 2 0 0 1-2 2h-9.982c-.533 0-.971-.409-1.017-.931v-.004a1 1 0 0 1 .998-1.066h9.503a.501.501 0 0 0 .499-.499V4.498a.5.5 0 0 0-.499-.499h-9.093a1.98 1.98 0 0 0-1.407.585L4.586 9.999A1.976 1.976 0 0 0 4 11.406V26a2 2 0 0 0 2 2h20a2 2 0 0 0 2-2V6a2 2 0 0 0-2-2zM16 23a4 4 0 0 1 0-8 4 4 0 0 1 0 8z" />
    </symbol>
    <symbol id="icon-chevron-down" viewBox="0 0 50 32">
      <path stroke-width="7.111" d="m3.556 3.556 21.333 21.333L46.222 3.556" />
    </symbol>
    <symbol id="icon-codepen" viewBox="0 0 32 32">
      <path
        d="m22 17.602-4.668 3.11v4.796L25.596 20 22 17.6zM19.596 16 16 13.6 12.404 16 16 18.396 19.596 16zm7.07-1.51L24.404 16l2.262 1.508V14.49zM25.596 12l-8.264-5.508v4.794L22 14.396 25.596 12zM10 14.396l4.666-3.11V6.492L6.404 12 10 14.396zM6.404 20l8.262 5.508v-4.796L10 17.602 6.404 20zm-1.072-2.492L7.596 16l-2.264-1.51v3.02zM2.666 12c0-.461.234-.867.589-1.107l.005-.003 12-8a1.332 1.332 0 0 1 1.485.003l-.005-.003 12 8c.359.242.592.648.592 1.108v8.005c0 .459-.233.865-.587 1.103l-.005.003-12 8a1.332 1.332 0 0 1-1.485-.003l.005.003-12-8a1.332 1.332 0 0 1-.594-1.108v-8z" />
    </symbol>
    <symbol id="icon-codewars" viewBox="0 0 32 32">
      <path
        d="m1.016 16.266-.11-.052a1.383 1.383 0 0 1-.552-.58l-.004-.008a2.012 2.012 0 0 1-.272-.999v-.001l.026-.172c0-.266.068-.506.188-.734l.11-.2c.052-.108.13-.2.198-.29a.347.347 0 0 0 .067-.326l.001.002-.068-.214a2.789 2.789 0 0 1-.13-.793v-.003l-.042-.16-.001-.049c0-.287.101-.55.269-.757l-.002.002.134-.172a.745.745 0 0 1 .395-.265l.005-.001c.132-.04.226-.176.24-.332l.028-.454c0-.36.172-.692.438-.938l.322-.24a.787.787 0 0 0 .182-.24.324.324 0 0 0 .068-.268v.002c-.026-.13 0-.172.068-.188.214.084.35.058.444-.052l.172-.224.48-.536a.518.518 0 0 0 .101-.56l.001.003-.156-.35c-.026-.078 0-.172.068-.198.172 0 .292.064.344.172l.052.094c.084.16.272.24.4.172.221-.082.476-.13.742-.13h.446a.598.598 0 0 0 .59-.507v-.003c.034-.333.168-.631.372-.866l-.002.002c.202-.23.426-.4.692-.536.321-.152.556-.442.629-.791l.001-.007c.077-.393.305-.721.621-.929l.005-.003 1.016-.572.292-.178c.181-.111.335-.244.466-.397l.002-.003.266-.32a.89.89 0 0 1 .422-.262l.006-.002a1.24 1.24 0 0 1 .485-.051l.525.036c.266 0 .48.068.692.16l.136.068c.134.052.266.026.332-.068l.12-.068.574-.6a.522.522 0 0 1 .471-.16h-.003c.19.035.36.097.515.182l-.009-.004c.191.113.42.18.665.18h.137c.292 0 .582.044.88.11l.198.052a.514.514 0 0 0 .529-.187l.001-.001a.121.121 0 0 1 .105-.059c.032 0 .062.013.084.033.042.026.052.052.068.094.026.266.188.47.4.532l.216.068c.23.072.421.212.554.397l.002.003c.136.2.298.4.48.532l.134.134a.62.62 0 0 0 .508.172h-.003.786c.322 0 .63.058.938.188.292.136.6.16.874.052.298-.088.604-.13.912-.088l.572.088c.266.032.532.16.694.366l.068.062c.13.136.266.308.396.496a.502.502 0 0 0 .442.266h.838c.204 0 .4.04.564.134.172.13.318.266.452.4l.13.174c.16.188.24.438.23.708 0 .214.16.396.37.396l.27.03c.188 0 .344.13.44.302l.134.272.344.77c.05.12.068.248.056.376 0 .13.036.24.13.292l.136.094a.608.608 0 0 1 .239.565v-.003l-.094.626-.026.266a.43.43 0 0 0 .16.4l.001.001a.625.625 0 0 1 .302.505v.267c0 .134-.026.296-.13.4a.635.635 0 0 0-.134.393v.008l.04.308c0 .214.132.4.268.532a.838.838 0 0 1 .322.558v.004c.052.334.064.6.064.866v.306c0 .11 0 .214.04.32.032.1.093.184.173.243l.001.001.266.198c.27.172.458.4.562.708.136.292.172.6.172.906v.104c0 .24-.026.494-.104.72a.95.95 0 0 0 .038.672l-.002-.006c.11.188.178.4.204.63a1.262 1.262 0 0 1-.071.753l.003-.008-.026.094a1.2 1.2 0 0 1-.307.427l-.001.001c-.134.134-.266.214-.344.306a.336.336 0 0 0-.094.334l.036.188a1.457 1.457 0 0 1-.002.78l.002-.01v.11c-.057.202-.13.378-.221.543l.007-.013a.983.983 0 0 1-.391.397l-.005.003-.202.132a.354.354 0 0 0-.16.296v.001c0 .132-.05.253-.132.344l-.202.272a1.234 1.234 0 0 1-.482.393l-.008.003a3.101 3.101 0 0 0-.469.399l-.001.001a1.46 1.46 0 0 0-.289.526l-.003.01a.448.448 0 0 1-.441.37h-.721c-.188 0-.36.136-.438.298-.08.188-.183.35-.308.492l.002-.002c-.125.131-.22.292-.27.472l-.002.008c-.026.16-.156.27-.292.212a.336.336 0 0 0-.426.134l-.001.002c-.136.234-.3.448-.49.64l-.094.08a1.055 1.055 0 0 1-.601.24h-.003c-.24 0-.36.108-.396.264a2.29 2.29 0 0 0-.083.451l-.001.009a2.203 2.203 0 0 1-.136.451l.006-.015-.068.08c-.134.2-.24.4-.374.572l-.052.082a1.224 1.224 0 0 1-.659.462l-.009.002a2.68 2.68 0 0 1-.88.136h-.188a.454.454 0 0 0-.359.212l-.001.002-.076.134-.084.156-.172.298c-.129.231-.34.403-.593.478l-.007.002c-.28.066-.566.092-.852.076l-.214-.026a1.19 1.19 0 0 1-.539-.137l.007.003c-.134-.052-.322 0-.4.134a.92.92 0 0 1-.464.348l-.006.002-.4.13a1.732 1.732 0 0 1-.852-.003l.012.003-.214-.068a.759.759 0 0 1-.377-.132l.003.002a.713.713 0 0 0-.341-.086l-.057.002h.002l-.178.032a1.994 1.994 0 0 1-.758-.071l.014.004-.36-.084a.741.741 0 0 1-.398-.303l-.002-.003a.535.535 0 0 0-.397-.266h-.431a.978.978 0 0 1-.667-.333l-.001-.001-.53-.504-.188-.16-.292-.216-.172-.13a1.546 1.546 0 0 0-.692-.265l-.008-.001-.796-.134c-.082 0-.134-.026-.214-.042l-.306-.068a.605.605 0 0 1-.359-.264l-.001-.003c-.078-.13-.228-.188-.36-.13-.264.104-.478.13-.692.172h-.188a1.965 1.965 0 0 1-1.002-.177l.012.005a1.776 1.776 0 0 1-.724-.585l-.004-.005a1.086 1.086 0 0 0-.693-.451l-.007-.001-.368-.08a2.212 2.212 0 0 1-.784-.325l.008.005a1.425 1.425 0 0 1-.502-.566l-.004-.008a1.669 1.669 0 0 1-.188-.663v-.109a.654.654 0 0 0-.459-.571l-.005-.001a1.957 1.957 0 0 1-.736-.402l.002.002a.945.945 0 0 1-.296-.689v-.005l.03-.59.001-.038c0-.21-.088-.4-.229-.534a.817.817 0 0 1-.266-.572v-.002l-.042-.48a7.287 7.287 0 0 0-.182-1.09l.01.05a.672.672 0 0 1 .289-.758l.003-.002.094-.068a.334.334 0 0 0 .108-.43l.001.002-.108-.13a.928.928 0 0 0-.393-.264l-.006-.002c-.108-.028-.132-.134-.132-.202l.13-.16a.249.249 0 0 0-.001-.32.641.641 0 0 1-.172-.371v-.003l-.026-.932c0-.188.026-.376.08-.558.056-.16 0-.348-.158-.426v.01zm13.198-1.76c.094-.094.078-.266 0-.334a1.201 1.201 0 0 1-.305-.354l-.003-.006-.134-.212a1.815 1.815 0 0 0-.343-.453l-.001-.001-.028-.026a1.075 1.075 0 0 1-.305-.393l-.003-.007a.415.415 0 0 1 .001-.402l-.001.002.08-.132a.971.971 0 0 0 .134-.479v-.057a.747.747 0 0 0-.138-.398l.002.002a1.54 1.54 0 0 1-.128-.363l-.002-.011V10.8a.547.547 0 0 1 .105-.469l-.001.001c.104-.151.184-.329.228-.52l.002-.01V9.77a.514.514 0 0 0-.059-.44l.001.002a.487.487 0 0 1-.051-.429l-.001.003.094-.266c.084-.247.207-.459.364-.643L13.72 8l.188-.2.134-.16.08-.08a.26.26 0 0 0 .023-.321l.001.001a.615.615 0 0 1-.078-.405v.003l.026-.188c.039-.285.149-.538.311-.75l-.003.004.052-.052c.183-.249.438-.437.734-.533l.01-.003.366-.13c.156-.052.266-.228.266-.4 0-.214.068-.4.186-.574l.064-.068c.134-.224.296-.452.4-.692l.094-.172a.269.269 0 0 0 .042-.135v-.001c0-.224-.134-.426-.348-.438l-.584-.04c-.332-.028-.666 0-.99 0l-1.13.134c-.176 0-.306.13-.322.318a.433.433 0 0 1-.289.399l-.003.001-.48.13-.134.042-.4.136c-.3.1-.538.316-.665.593l-.003.007-.104.17c-.141.299-.361.54-.633.704l-.007.004a.977.977 0 0 0-.428.77v.136a1.33 1.33 0 0 1-.268.723l.002-.003-.068.108a.427.427 0 0 0-.067.457l-.001-.003c.061.129.096.28.096.44l-.002.067v-.003.708a.443.443 0 0 1-.263.395l-.003.001a.569.569 0 0 0-.359.396l-.001.004-.068.268a.68.68 0 0 0 .264.697l.002.001c.214.166.361.409.399.686l.001.006v.24a.934.934 0 0 0 .424.666l.004.002c.24.16.428.4.532.666l.068.214a.732.732 0 0 0 .611.49h.083c.24 0 .452.136.588.35a.86.86 0 0 0 .577.399l.005.001.376.104c.241.072.447.196.614.36l.026.03a.342.342 0 0 0 .469-.056v-.001l.094-.104-.02-.016zm1.52-1.224c.13.078.266.036.318-.084l.04-.062c.105-.204.22-.38.352-.541l-.004.005.27-.4c.036 0 .052-.028.064-.054l.322-.426a.693.693 0 0 1 .479-.224h.003a.432.432 0 0 0 .398-.263l.001-.003c.047-.203.15-.376.291-.51l.068-.08c.112-.109.245-.198.392-.261l.008-.003c.174-.026.334-.058.496-.058h.396c.16 0 .298-.062.376-.198a.763.763 0 0 1 .327-.29l.005-.002.136-.056c.214-.09.452-.156.692-.182l.266-.026c.16 0 .334 0 .496.088a.353.353 0 0 0 .439-.026l.094-.052c.187-.136.413-.23.658-.265l.008-.001h.026a3.15 3.15 0 0 1 .776-.04h.13c.265.027.498.149.667.331l.001.001.04.052c.137.14.323.23.53.244h.234a.2.2 0 0 0 .169-.093v-.001a.27.27 0 0 1 .171-.082H26c.188 0 .36.052.532.108l.228.094c.214.064.44.13.668.156h.16c.104 0 .172-.062.172-.156v-.025a.69.69 0 0 0-.096-.352l.002.003-.094-.214c-.104-.172-.188-.36-.266-.532l-.026-.068a.415.415 0 0 1 .001-.402l-.001.002v-.068a.228.228 0 0 0-.131-.265L27.148 8h-.104a1.096 1.096 0 0 1-.534-.358l-.002-.002-.13-.134a1.179 1.179 0 0 1-.27-.524l-.002-.008c-.062-.172-.208-.306-.396-.306h-.562a.75.75 0 0 1-.495-.29l-.001-.002-.052-.068a1.742 1.742 0 0 1-.221-.442l-.003-.012c-.068-.134-.214-.214-.348-.172l-.16.052a1.791 1.791 0 0 1-.807.104l.007.001-.212-.026a1.029 1.029 0 0 1-.618-.226l.002.002-.134-.094a1.312 1.312 0 0 0-.325-.185l-.009-.003c-.13-.052-.24-.026-.318.068l-.068.08a.903.903 0 0 1-.499.263l-.005.001-.72.042a.524.524 0 0 0-.36.16.77.77 0 0 1-.359.183l-.005.001h-.026c-.13 0-.266.094-.396.188v.026a.676.676 0 0 1-.484.202l-.052.026c-.16 0-.318 0-.48.042h-.16a.579.579 0 0 0-.451.46l-.001.004-.052.308a1.375 1.375 0 0 1-.268.575l.002-.003c-.136.16-.298.266-.496.266h-.224c-.134.032-.27.178-.244.334a1.973 1.973 0 0 1-.038.643l.003-.013-.052.224a.622.622 0 0 1-.362.424l-.004.002-.078.042h-.026c-.078.052-.134.172-.068.266.076.12.11.26.094.4l-.04.428a.983.983 0 0 1-.135.445l.003-.005a.409.409 0 0 0-.025.402l-.001-.002.13.292a.565.565 0 0 1 .041.43l.001-.004a.94.94 0 0 0-.051.404v-.004c0 .136.08.268.188.324l.05.052zm10.532 9.64c.134.13.332.182.494.08l.266-.174a.754.754 0 0 0 .291-.395l.001-.005V22.4l.136-.4.078-.136.056-.13.052-.094a.403.403 0 0 1 .263-.229l.003-.001.052-.026a.241.241 0 0 0 .178-.24c0-.13.062-.24.13-.332l.108-.094.266-.344v-.026a.989.989 0 0 0 .159-.359l.001-.007a.662.662 0 0 0-.058-.4l.002.004-.026-.056a1.256 1.256 0 0 1-.093-.337l-.001-.007-.036-.376-.04-.4c0-.13.05-.266.134-.396.083-.109.155-.232.21-.365l.004-.011v-.052l.026-.026c.026-.134-.042-.27-.16-.27-.136-.064-.268-.172-.308-.334l-.042-.078a2.781 2.781 0 0 1-.104-.718v-.002l.026-.666v-.04a.406.406 0 0 0-.4-.402h-.028l-.033.001a.884.884 0 0 1-.633-.266l-.104-.136-.272-.3-.344-.402a3.144 3.144 0 0 0-.44-.508l-.002-.002a1.01 1.01 0 0 0-.525-.291l-.007-.001-.266-.042a1.378 1.378 0 0 1-.458-.185l.006.003c-.11-.084-.266-.058-.376.052l-.172.188-.082.052c-.094.026-.182-.026-.224-.136a.678.678 0 0 1 .028-.506l-.002.004v-.08c0-.092-.08-.16-.16-.134h-.216l-.06.001c-.232 0-.453-.048-.653-.135l.011.004-.136-.056a.982.982 0 0 0-.438-.104h-.016a.762.762 0 0 0-.388.106l.003-.002-.052.04a1.102 1.102 0 0 1-.533.174h-.452a.868.868 0 0 0-.528.178l.002-.002a1.62 1.62 0 0 1-.548.207l-.01.002-.36.058c-.185.04-.347.118-.485.226l.003-.002a1.122 1.122 0 0 1-.482.264l-.008.002-.068.03a.96.96 0 0 0-.53.392l-.002.004-.16.16c-.044.059-.07.133-.07.214s.026.155.071.215l-.001-.001c.078.136.24.172.4.136l.2-.084c.102-.036.228 0 .316.052a.435.435 0 0 0 .326.094h-.002l.332-.036c.188 0 .376 0 .558.052a1.6 1.6 0 0 1 .54.269l-.004-.003a.972.972 0 0 0 .526.214h.004c.204.026.4.068.59.136l.13.026c.14.045.253.14.321.263l.001.003c.074.113.121.25.13.398V15.9c0 .156.136.266.272.266h.078c.214 0 .442.026.666.094l.094.036c.148.055.27.149.358.27l.002.002c.093.112.166.244.212.388l.002.008.04.188c.038.202.054.4.054.614v.068c0 .13.094.266.24.32a1.7 1.7 0 0 1 .451.164l-.009-.004.064.026c.176.104.348.24.48.4l.066.094c.165.186.266.432.266.701v.097c0 .202-.036.4-.104.588-.052.16 0 .35.172.4l.094.07c.207.086.378.222.504.393l.002.003c.118.18.188.4.188.637v.031-.002.4a.805.805 0 0 1-.132.337l.002-.003a.279.279 0 0 0 .001.325l-.001-.001.078.13.02-.016zm-8.532-6.828h-.026c-.058 0-.084.068-.068.136l.052.266c.052.214.078.426.108.64a.81.81 0 0 0 .291.531l.001.001h.052c.192.152.319.38.334.638v.67a.465.465 0 0 0 .083.375l-.001-.001.064.064c.122.152.192.34.202.536l.036.734c0 .172-.104.318-.266.344l-.13.026c-.094 0-.134.108-.134.202 0 .104.04.224.078.334v.026a.942.942 0 0 1 .04.404v-.004l-.05.36c-.05.26-.14.512-.266.744l-.094.16a.585.585 0 0 1-.269.267l-.003.002a.46.46 0 0 0-.265.289l-.001.003-.104.48c-.083.304-.202.57-.355.812l.007-.012h-.026c-.16.218-.36.396-.591.527l-.009.005-.16.108-.4.2a.422.422 0 0 0-.24.318v.002l-.064.44a1.095 1.095 0 0 1-.324.666l-.172.204-.202.198-.2.214a.715.715 0 0 1-.671.227l.004.001-.48-.094-.44-.056h-.12c-.054.056-.064.134-.028.214.094.16.24.27.4.27l.294.052c.134 0 .296.068.426.13.136.094.266.16.428.204h.026c.176.068.36.078.536.068l.198-.032a1.171 1.171 0 0 1 .631.087l-.008-.003.16.052c.07.026.174 0 .24-.068a.794.794 0 0 1 .263-.17l.005-.002.108-.026c.159-.052.342-.083.531-.084h.109c.156 0 .308.032.44.11l.05.026c.094.04.204 0 .272-.08a.758.758 0 0 1 .222-.263l.002-.001.332-.23.214-.134.11-.064a.844.844 0 0 1 .459-.134h.023-.001l.478-.042a.482.482 0 0 0 .399-.341l.001-.003c.051-.219.143-.412.269-.578l-.003.004c.136-.176.266-.322.4-.452a.923.923 0 0 1 .529-.214h.113a.447.447 0 0 0 .36-.438v-.017.001-.896c.031-.165.084-.311.158-.446l-.004.008.272-.4.104-.136c.082-.068.134-.156.228-.266l.13-.172a.349.349 0 0 0-.026-.426.91.91 0 0 1-.224-.502v-.06a1.705 1.705 0 0 1 .039-.68l-.003.012v-.062c.077-.195.169-.363.277-.518l-.005.008a.307.307 0 0 0-.042-.428l-.23-.198a.98.98 0 0 1-.318-.636v-.004l-.026-.266c0-.084 0-.172-.026-.266l-.026-.204a.775.775 0 0 0-.345-.528l-.003-.002-.094-.026a1.294 1.294 0 0 1-.373-.356l-.003-.004a1.288 1.288 0 0 1-.197-.502l-.001-.008-.04-.224c0-.082-.054-.134-.132-.172l-.64-.202a.755.755 0 0 1-.359-.223l-.001-.001h-.026c-.082-.11-.214-.11-.296-.032l-.13.136c-.026.04-.058.052-.094.04-.084 0-.136-.066-.11-.134a.597.597 0 0 0-.223-.555l-.001-.001-.176-.136-.396-.266c-.11-.04-.272 0-.324.13l-.052.084c0 .026-.04.036-.052.052-.056 0-.134 0-.134-.068l-.042-.068c-.036-.08-.13-.13-.214-.156l-.03-.068zm-1.6 1.334-.068-.068c-.068-.052-.134-.042-.202.026-.09.147-.164.317-.211.497l-.003.013v.026c-.036.172-.2.292-.36.266h-.156a.34.34 0 0 0-.332.34v.004c0 .24-.084.484-.23.666l-.078.084c-.138.166-.32.291-.528.358l-.008.002-.104.024a.36.36 0 0 0-.266.29v.002c0 .136-.082.272-.188.376l-.134.104a1.006 1.006 0 0 1-.636.296h-.004l-.668.068c-.214 0-.396.13-.532.334a.803.803 0 0 1-.525.359l-.005.001-.298.024a1.937 1.937 0 0 1-.679-.029l.013.002-.13-.026-.366-.094a.278.278 0 0 0-.317.093l-.001.001-.134.172a.773.773 0 0 1-.672.265h.003l-.864-.104c-.136 0-.24-.068-.36-.134a1.608 1.608 0 0 1-.322-.266l-.334-.4a.218.218 0 0 0-.173-.027h.002l-.188.08-.744.186c-.136.042-.308 0-.44-.078a.69.69 0 0 0-.414-.135l-.044.001h.002-.172a.299.299 0 0 0-.224.253v.001a.282.282 0 0 0 .011.123l-.001-.002.052.266a.58.58 0 0 1-.037.431l.002-.003c-.068.134-.052.266.036.4l.082.104c.104.16.266.298.4.428.132.134.268.266.372.442l.202.36a.526.526 0 0 0 .47.292h.011-.001c.198 0 .4.068.556.198l.4.374c.11.094.268.11.376.026l.068-.026c.08 0 .13.052.13.136v.068c0 .172.136.332.308.396l.6.134c.212.068.426.136.628.266h.104a.195.195 0 0 0 .142-.064.194.194 0 0 0 .045-.151v.001-.464c0-.134.052-.27.16-.322l.07-.026c.062.026.13.078.104.134v.224c0 .172.052.334.172.454a.424.424 0 0 0 .455.107l-.003.001c.16-.068.324-.082.496-.068l.494.026c.24.026.464 0 .668-.094.24-.078.438-.188.624-.332l.08-.052.4-.36a.666.666 0 0 1 .467-.202h.533a.629.629 0 0 0 .536-.529v-.003l.052-.266c0-.176.078-.332.198-.468.11-.114.243-.204.392-.263l.008-.003.16-.068a.872.872 0 0 0 .478-.526l.002-.006.08-.322c.065-.279.206-.519.399-.703l.001-.001.026-.03c.16-.13.188-.396.082-.584l-.04-.094a.554.554 0 0 1-.043-.508l-.001.004c.065-.195.147-.363.246-.52l-.006.01.136-.188c.052-.104.052-.266-.026-.36a.609.609 0 0 1-.136-.369v-.001l-.026-.188v-.452a.995.995 0 0 0-.042-.451l.002.007-.054-.156-.006-.04zm-1.906-1.016v-.036c0-.136-.082-.214-.188-.214h-.348a.91.91 0 0 1-.382-.001l.006.001h-.6c-.306 0-.598-.058-.89-.136l-.322-.078-.266-.082-.6-.2a1.133 1.133 0 0 1-.705-.591l-.003-.007-.068-.134c-.094-.2-.292-.308-.49-.266-.228 0-.452 0-.666-.104l-.16-.068c-.308-.136-.532-.4-.532-.76l-.058-.36a.578.578 0 0 0-.315-.424l-.003-.002a3.518 3.518 0 0 1-.547-.315l.011.007-.062-.04a1.457 1.457 0 0 1-.467-.616l-.003-.01-.026-.08a1.24 1.24 0 0 1-.024-.674l-.002.009.026-.082a1.77 1.77 0 0 0 .068-.491v-.043.002a.631.631 0 0 0-.188-.442l-.188-.174a.97.97 0 0 1-.36-.706v-.002a3.075 3.075 0 0 1 .031-.873l-.003.019v-.08a.266.266 0 0 0-.266-.264h-.042a.449.449 0 0 0-.4.266 1.512 1.512 0 0 1-.295.481l.001-.001-.052.066-.4.4a.909.909 0 0 0-.24.528v.004c-.026.204-.08.4-.16.59l-.028.068a.96.96 0 0 1-.304.398l-.002.002a.572.572 0 0 0-.224.42v.002l-.026.616c0 .266-.042.536-.136.8l-.026.106a.346.346 0 0 0 .158.442l.002.001.56.24.05.026c.042 0 .058.026.068.068.042.052 0 .13-.04.13l-.132.068c-.078.026-.134.11-.16.204l-.026.13v.026l-.136.75c-.026.104-.026.224-.026.344 0 .107.065.2.158.239l.002.001.294.134c.134.08.296.172.4.266l.136.11a.473.473 0 0 0 .153.129l.003.001.056.052c.092.08.158.188.188.306l.13.6c0 .16.136.296.266.332l.214.068s.042 0 .068.026l.266.084c.221.074.41.192.564.344.16.134.318.306.452.494l.052.052c.11.136.266.204.428.16.16-.04.332-.05.504-.05h.204a.87.87 0 0 1 .452.13c.13.082.308.134.464.202h.042a.5.5 0 0 0 .472-.053l-.002.001c.126-.1.288-.16.463-.16h.018-.001l.624.036c.134 0 .266-.026.332-.13h.026l.23-.214.068-.068a.579.579 0 0 1 .419-.2h.607c.156 0 .306-.134.37-.264a.508.508 0 0 1 .357-.271l.003-.001.27-.052c.104 0 .198-.094.24-.214a.627.627 0 0 1 .197-.317l.001-.001.214-.214c.118-.11.2-.256.227-.422l.001-.004-.026.01z" />
    </symbol>
    <symbol id="icon-devto" viewBox="0 0 32 32">
      <path
        d="M24.5 0h-17A7.5 7.5 0 0 0 0 7.5v17A7.5 7.5 0 0 0 7.5 32h17a7.5 7.5 0 0 0 7.5-7.5v-17A7.5 7.5 0 0 0 24.5 0z" />
      <path
        d="M10.922 18.4v-4.814c-.002-1.278-.81-3.21-3.212-3.21H4.5V21.61h3.144c2.49.004 3.276-1.93 3.276-3.208zm-3.098-5.92c.264 0 .528.098.79.294.262.198.394.494.396.888v4.73c0 .394-.132.69-.394.886a1.307 1.307 0 0 1-.788.296H6.64v-7.096h1.182zM17.744 12.38h-3.61v2.61h2.208V17h-2.208v2.608h3.612v2.008h-4.248a1.37 1.37 0 0 1-1.37-1.335V11.745c0-.745.594-1.352 1.335-1.371h4.282v2.006zm7.024 7.83c-.894 2.088-2.496 1.672-3.214 0l-2.614-9.83h2.208l2.014 7.722 2.002-7.722h2.208l-2.606 9.832z" />
    </symbol>
    <symbol id="icon-drag-and-drop" viewBox="0 0 64 32">
      <path d="M0 0h64v5.333H0zm0 26.667h64V32H0z" />
    </symbol>
    <symbol id="icon-email" viewBox="0 0 32 32">
      <path
        d="M28 6H4a1 1 0 0 0-1 1v17a2 2 0 0 0 2 2h22a2 2 0 0 0 2-2V7a1 1 0 0 0-1-1zm-1 18H5V9.274l10.324 9.464a.996.996 0 0 0 1.353-.001l-.001.001L27 9.274V24z" />
    </symbol>
    <symbol id="icon-facebook" viewBox="0 0 32 32">
      <path
        d="M32 16.098c0-8.892-7.164-16.1-16-16.1C7.16 0-.004 7.206-.004 16.1c0 8.034 5.852 14.694 13.5 15.902v-11.25h-4.06V16.1H13.5v-3.55c0-4.034 2.39-6.262 6.044-6.262 1.752 0 3.582.314 3.582.314v3.96h-2.018c-1.986 0-2.606 1.242-2.606 2.516v3.02h4.436l-.708 4.652H18.5V32C26.148 30.792 32 24.132 32 16.098z" />
    </symbol>
    <symbol id="icon-freecodecamp" viewBox="0 0 32 32">
      <path
        d="M26.514 5.208a.82.82 0 0 0-.474.162l.002-.002c-.108.106-.216.26-.216.418 0 .266.316.632.898 1.23 2.43 2.34 3.65 5.204 3.642 8.66-.008 3.82-1.292 6.892-3.792 9.27-.524.472-.74.84-.742 1.156 0 .156.106.316.214.472.126.124.292.2.47.216.58 0 1.386-.684 2.444-2.012 2.056-2.52 2.986-5.304 3.04-9.1.046-3.796-1.144-6.368-3.472-9.026-.84-.95-1.538-1.442-2.014-1.444zM5.488 5.21c-.478 0-1.176.494-2.014 1.444-2.33 2.658-3.52 5.232-3.472 9.028.052 3.794.982 6.576 3.04 9.098 1.054 1.33 1.864 2.014 2.442 2.012a.766.766 0 0 0 .47-.216c.106-.154.212-.316.212-.47 0-.316-.216-.686-.74-1.156-2.498-2.38-3.786-5.448-3.792-9.27-.008-3.456 1.212-6.32 3.642-8.66.582-.598.9-.962.898-1.23 0-.156-.108-.31-.216-.418a.82.82 0 0 0-.471-.16h.001zm9.408 1.194s.874 2.774-3.532 8.97c-4.208 5.91 1.394 9.532 1.91 9.848-.376-.24-2.668-2 .536-7.232.62-1.026 1.434-1.96 2.444-4.054 0 0 .894 1.26.428 3.998-.698 4.134 3.028 2.952 3.084 3.008 1.302 1.534-1.076 4.228-1.222 4.312-.144.08 6.794-4.174 1.866-10.58-.338.336-.776 1.922-1.69 1.688-.912-.232 2.834-4.66-3.824-9.958zm-1.622 18.818z" />
    </symbol>
    <symbol id="icon-github" viewBox="0 0 32 32">
      <path
        d="M19.964 4.576c-1.191-.289-2.557-.454-3.963-.454s-2.772.166-4.082.478l.119-.024C10.53 3.652 9.38 3.228 8.544 3.048a4.487 4.487 0 0 0-1.015-.113l-.077.001h.004a2.737 2.737 0 0 0-.512.063l.018-.003-.02.004-.01.004h-.006v.002a1.07 1.07 0 0 0-.681.581l-.003.007a6.547 6.547 0 0 0-.579 2.715c0 .629.087 1.237.25 1.814l-.011-.047a7.116 7.116 0 0 0-1.634 4.552v.024-.001c0 3.314.976 5.54 2.642 6.972 1.168 1.002 2.584 1.536 4.004 1.84a4.898 4.898 0 0 0-.244 2.064l-.001-.019v1.276c-.868.18-1.47.124-1.9-.016-.534-.178-.946-.534-1.34-1.046a9.837 9.837 0 0 1-.552-.813l-.026-.045-.12-.198a17.28 17.28 0 0 0-.524-.825l.044.069c-.404-.6-1.006-1.35-1.98-1.606l-1.03-.27-.542 2.064 1.032.272c.17.042.392.202.758.738.14.212.274.426.404.644l.146.234c.2.324.43.684.698 1.034.54.704 1.274 1.414 2.368 1.774.746.248 1.594.308 2.564.158v3.984c0 .589.477 1.066 1.066 1.066h8.534c.589 0 1.066-.477 1.066-1.066V23.334c0-.672-.03-1.288-.22-1.862 1.414-.3 2.82-.832 3.98-1.836 1.666-1.44 2.64-3.69 2.64-7.022v-.002a7.133 7.133 0 0 0-1.649-4.546l.009.012a6.5 6.5 0 0 0 .239-1.769c0-.982-.213-1.914-.594-2.753l.017.042c-.13-.286-.374-.5-.672-.588l-.008-.002-.292 1.024c.292-1.024.29-1.024.288-1.024l-.004-.002-.01-.004-.02-.006a2.628 2.628 0 0 0-.492-.06h-.068c-.363 0-.716.042-1.055.121l.031-.006c-.834.18-1.984.604-3.49 1.528z" />
    </symbol>
    <symbol id="icon-gitlab" viewBox="0 0 32 32">
      <path
        d="m28.884 13.316-.038-.096-3.624-9.46a.951.951 0 0 0-.945-.598h.003a.948.948 0 0 0-.87.689l-.002.007-2.448 7.502h-9.92l-2.45-7.5a.95.95 0 0 0-.866-.7h-.002a.96.96 0 0 0-.941.593l-.002.006-3.628 9.476-.04.092a6.62 6.62 0 0 0-.444 2.406A6.728 6.728 0 0 0 5.329 21.1l.017.012.014.008.032.026 5.528 4.14 4.396 3.328c.186.142.422.227.678.227s.492-.085.681-.23l-.003.002 1.66-1.26 2.736-2.07 5.576-4.174a6.739 6.739 0 0 0 2.225-7.84l.016.046z" />
    </symbol>
    <symbol id="icon-hashnode" viewBox="0 0 32 32">
      <path
        d="M2.2 10.694c-2.932 2.876-2.932 7.68 0 10.612l8.492 8.494c2.874 2.932 7.68 2.932 10.612 0l8.494-8.494c2.93-2.93 2.93-7.736 0-10.612L21.306 2.2c-2.932-2.932-7.738-2.932-10.612 0l-8.496 8.494zm17.52 9.026c-.952.95-2.265 1.537-3.716 1.537s-2.764-.587-3.716-1.537c-.953-.95-1.542-2.264-1.542-3.716s.589-2.766 1.542-3.716c.95-.952 2.264-1.541 3.715-1.541s2.765.589 3.715 1.541c.95.952 1.537 2.265 1.537 3.716s-.587 2.764-1.537 3.716z" />
    </symbol>
    <symbol id="icon-link" viewBox="0 0 32 32">
      <path
        d="M17.046 23.44c.273.271.443.647.443 1.063s-.169.792-.442 1.063l-.742.742A7.502 7.502 0 1 1 5.694 15.701l3.015-3.013a7.476 7.476 0 0 1 5.311-2.205c1.915 0 3.663.718 4.988 1.899l-.007-.007a1.506 1.506 0 0 1-2.003 2.248l.002.002a4.482 4.482 0 0 0-2.989-1.137 4.487 4.487 0 0 0-3.183 1.319l-3.012 3.012a4.5 4.5 0 1 0 6.366 6.366l.74-.742c.271-.273.647-.442 1.062-.442s.791.169 1.062.442zm9.26-17.748c-1.359-1.355-3.234-2.193-5.305-2.193s-3.946.838-5.305 2.194l-.742.74a1.503 1.503 0 0 0 2.124 2.128l.744-.74a4.5 4.5 0 0 1 6.364 6.364l-3.014 3.014a4.485 4.485 0 0 1-3.181 1.317 4.484 4.484 0 0 1-2.995-1.141l.004.004a1.506 1.506 0 0 0-2 2.25l.001.001a7.465 7.465 0 0 0 4.983 1.895c2.072 0 3.948-.84 5.305-2.198l3.014-3.014a7.487 7.487 0 0 0 2.197-5.309 7.487 7.487 0 0 0-2.194-5.305v-.002z" />
    </symbol>
    <symbol id="icon-linkedin" viewBox="0 0 32 32">
      <path
        d="M25.334 4A2.667 2.667 0 0 1 28 6.666v18.668A2.668 2.668 0 0 1 25.334 28H6.666A2.668 2.668 0 0 1 4 25.334V6.666A2.667 2.667 0 0 1 6.666 4h18.668zm-.668 20.666V17.6c0-2.4-1.946-4.346-4.346-4.346-1.134 0-2.454.692-3.094 1.732v-1.48h-3.72v11.16h3.72v-6.572a1.86 1.86 0 0 1 3.72 0v6.572h3.72zM9.174 11.414a2.24 2.24 0 0 0 2.24-2.24v-.008a2.247 2.247 0 1 0-2.248 2.248h.008zm1.852 13.252v-11.16H7.334v11.16h3.692z" />
    </symbol>
    <symbol id="icon-password" viewBox="0 0 32 32">
      <path
        d="M26 10h-4V7a6 6 0 1 0-12 0v3H6a2 2 0 0 0-2 2v14a2 2 0 0 0 2 2h20a2 2 0 0 0 2-2V12a2 2 0 0 0-2-2zm-9 9.828V23a1 1 0 0 1-2 0v-3.172A3.006 3.006 0 0 1 13 17a3 3 0 1 1 4.021 2.822l-.021.007zM20 10h-8V7a4 4 0 0 1 8 0v3z" />
    </symbol>
    <symbol id="icon-preview" viewBox="0 0 32 32">
      <path
        d="M31.376 15.392c-.048-.102-1.142-2.533-3.56-4.952C24.579 7.208 20.501 5.499 16 5.499c-4.499 0-8.579 1.709-11.811 4.941C1.77 12.859.675 15.29.626 15.392c-.081.179-.128.388-.128.609s.047.43.132.618l-.004-.01c.046.102 1.141 2.533 3.562 4.952 3.234 3.232 7.312 4.938 11.813 4.938s8.579-1.707 11.81-4.938c2.421-2.419 3.515-4.848 3.562-4.952a1.51 1.51 0 0 0 .001-1.227l.004.01zm-5.758 4.125c-2.683 2.642-5.92 3.984-9.616 3.984-3.701 0-6.934-1.342-9.616-3.986a16.341 16.341 0 0 1-2.652-3.437l-.042-.079a16.409 16.409 0 0 1 2.696-3.512l.001-.001C9.067 9.84 12.301 8.499 16 8.499s6.933 1.342 9.614 3.987A16.252 16.252 0 0 1 28.31 16a16.443 16.443 0 0 1-2.695 3.514l-.001.001h.003zm-9.616-9.018a5.501 5.501 0 0 0 0 11.002 5.501 5.501 0 0 0 0-11.002zm0 8h-.001A2.5 2.5 0 0 1 16 13.501a2.5 2.5 0 0 1 0 4.998z" />
    </symbol>
    <symbol id="icon-profile" viewBox="0 0 34 32">
      <path
        d="M16.8 2.501C9.345 2.502 3.302 8.545 3.302 16s6.044 13.499 13.499 13.499S30.3 23.455 30.3 16c-.008-7.453-6.048-13.493-13.5-13.501h-.001zm-6.054 22.07c1.38-1.872 3.577-3.073 6.054-3.073s4.674 1.201 6.04 3.052l.015.021c-1.683 1.207-3.784 1.929-6.054 1.929s-4.371-.723-6.086-1.951l.032.021zM13.299 15a3.501 3.501 0 0 1 7.002 0 3.501 3.501 0 0 1-7.002 0zm11.751 7.493a10.504 10.504 0 0 0-3.563-2.901l-.061-.027a6.5 6.5 0 1 0-9.25.001l-.001-.001a10.507 10.507 0 0 0-3.607 2.906l-.017.022a10.434 10.434 0 0 1-2.256-6.503c0-5.799 4.701-10.499 10.499-10.499s10.499 4.701 10.499 10.499c0 2.466-.85 4.733-2.273 6.524l.017-.022h.013z" />
    </symbol>
    <symbol id="icon-stack-overflow" viewBox="0 0 30 32">
      <path
        d="M23.821 28.376v-8.034h2.682v10.716H2.313V20.342h2.671v8.034h18.839zM7.665 25.702h13.481V23.02H7.665v2.682zm.329-6.09 13.154 2.744.563-2.598-13.146-2.739-.57 2.594zM9.7 13.269l12.179 5.683 1.131-2.447-12.175-5.685-1.133 2.432-.002.019zm3.407-6.005 10.31 8.604 1.705-2.037-10.308-8.597-1.698 2.024-.009.008zM19.763.941l-2.189 1.623 8.038 10.797 2.191-1.621L19.765.941z" />
    </symbol>
    <symbol id="icon-twitch" viewBox="0 0 32 32">
      <path
        d="M15.52 7.908h1.908v5.706H15.52zm5.24-.002h1.908v5.708H20.76zM9.334 2.666l-4.76 4.76v17.148h5.706v4.76l4.774-4.76h3.8L27.428 16V2.666zM25.52 15.054l-3.8 3.8h-3.812l-3.334 3.334v-3.334H10.28V4.574h15.24v10.48z" />
    </symbol>
    <symbol id="icon-twitter" viewBox="0 0 32 32">
      <path
        d="M29.946 8c-.954.442-2.061.765-3.223.914l-.057.006a5.765 5.765 0 0 0 2.495-3.133l.011-.041a11.328 11.328 0 0 1-3.551 1.387l-.075.013a5.62 5.62 0 0 0-4.139-1.813l-.079.001h.004a5.715 5.715 0 0 0-5.692 5.714v.006c0 .452.052.892.146 1.306A16.246 16.246 0 0 1 4.023 6.415L4 6.386a5.6 5.6 0 0 0-.774 2.857v.009-.001c0 1.988 1 3.748 2.546 4.748-.946 0-1.826-.266-2.6-.666v.04a5.724 5.724 0 0 0 4.588 5.612c-.84.23-1.72.262-2.574.094.747 2.291 2.843 3.927 5.329 3.974h.005a11.292 11.292 0 0 1-7.05 2.452h-.061.003c-.479 0-.952-.029-1.416-.086l.056.006c2.475 1.614 5.505 2.574 8.76 2.574h.015-.001c10.506 0 16.28-8.72 16.28-16.28 0-.254 0-.494-.014-.746 1.12-.8 2.08-1.814 2.854-2.974z" />
    </symbol>
    <symbol id="icon-upload-image" viewBox="0 0 32 32">
      <path
        d="M27 5H5a2 2 0 0 0-2 2v18a2 2 0 0 0 2 2h22a2 2 0 0 0 2-2V7a2 2 0 0 0-2-2zm0 2v12.844l-3.258-3.258c-.362-.362-.862-.586-1.414-.586s-1.052.224-1.414.586l-2.5 2.5-5.5-5.5c-.362-.362-.862-.586-1.414-.586s-1.052.224-1.414.586l-5.085 5.085V7h22zM5 21.5l6.5-6.5 10 10H5v-3.5zM27 25h-2.672l-4.499-4.5 2.499-2.5 4.671 4.672V25zm-9-12.5a1.5 1.5 0 0 1 3 0 1.5 1.5 0 0 1-3 0z" />
    </symbol>
    <symbol id="icon-youtube" viewBox="0 0 32 32">
      <path
        d="M16.324 5.334c.712.004 2.494.02 4.388.096l.672.03c1.904.09 3.808.244 4.754.506 1.26.354 2.25 1.386 2.584 2.696.534 2.08.6 6.136.608 7.12v.432c-.008.982-.074 5.04-.608 7.12a3.763 3.763 0 0 1-2.557 2.687l-.027.007c-.946.262-2.85.418-4.754.506l-.672.032c-1.894.074-3.676.092-4.388.096h-.652c-1.508-.008-7.808-.076-9.814-.634a3.766 3.766 0 0 1-2.578-2.67l-.006-.026c-.534-2.08-.6-6.136-.608-7.12v-.432c.008-.984.074-5.04.608-7.12a3.757 3.757 0 0 1 2.56-2.685l.027-.007c2.004-.56 8.306-.626 9.812-.634h.652zm-2.992 6v9.332l8-4.666-8-4.666z" />
    </symbol>
    <symbol id="icon-illustration-phone-mockup" viewBox="0 0 308 632" fill="none">
      <path stroke="#737373"
        d="M1 54.5C1 24.953 24.953 1 54.5 1h199C283.047 1 307 24.953 307 54.5v523c0 29.547-23.953 53.5-53.5 53.5h-199C24.953 631 1 607.047 1 577.5v-523Z" />
      <path fill="#fff" stroke="#737373"
        d="M12 55.5C12 30.923 31.923 11 56.5 11h24C86.851 11 92 16.149 92 22.5c0 8.008 6.492 14.5 14.5 14.5h95c8.008 0 14.5-6.492 14.5-14.5 0-6.351 5.149-11.5 11.5-11.5h24c24.577 0 44.5 19.923 44.5 44.5v521c0 24.577-19.923 44.5-44.5 44.5h-195C31.923 621 12 601.077 12 576.5v-521Z" />

      <rect width="237" height="44" x="35" y="278" fill="#EEE" rx="8" />
      <rect width="237" height="44" x="35" y="342" fill="#EEE" rx="8" />
      <rect width="237" height="44" x="35" y="406" fill="#EEE" rx="8" />
      <rect width="237" height="44" x="35" y="470" fill="#EEE" rx="8" />
      <rect width="237" height="44" x="35" y="534" fill="#EEE" rx="8" />
    </symbol>
    <symbol id="warning" viewBox="0 0 24 24">
      <path
        d="M12 22C6.477 22 2 17.523 2 12S6.477 2 12 2s10 4.477 10 10-4.477 10-10 10Zm0-2a8 8 0 1 0 0-16 8 8 0 0 0 0 16Zm-1-5h2v2h-2v-2Zm0-8h2v6h-2V7Z"
        stroke="none" />
    </symbol>
    <symbol id="check" viewBox="0 0 20 20">
      <path fill-rule="evenodd"
        d="M10 18a8 8 0 1 0 0-16 8 8 0 0 0 0 16zm3.707-9.293a1 1 0 0 0-1.414-1.414L9 10.586 7.707 9.293a1 1 0 0 0-1.414 1.414l2 2a1 1 0 0 0 1.414 0l4-4z"
        clip-rule="evenodd" stroke="none" />
    </symbol>
    <symbol id="icon-illustration-empty" viewBox="0 0 50 32">
      <path fill="#fff" style="fill:var(--color1, #fff)" opacity=".3"
        d="M9.678 3.065C4.646 5.013.913 9.951.17 15.926c-.62 5.035.862 10.597 9.586 12.182 16.975 3.085 34.474 3.445 38.532-4.875S46.792 1.59 38.177.668C31.341-.065 19.507-.74 9.678 3.064z" />
      <path fill="#333" style="fill:var(--color2, #333)"
        d="M31.209 1.901H18.493c-.798 0-1.444.647-1.444 1.444v24.032c0 .798.647 1.444 1.444 1.444h12.716c.798 0 1.444-.647 1.444-1.444V3.345c0-.798-.647-1.444-1.444-1.444z" />
      <path fill="#333" style="fill:var(--color2, #333)" opacity=".03"
        d="M24.851 27.999a1.13 1.13 0 0 0 0-2.26 1.13 1.13 0 0 0 0 2.26z" />
      <path fill="#efebff" style="fill:var(--color3, #efebff)" d="M31.131 4.238H18.57v20.961h12.561V4.238z" />
      <path fill="#333" style="fill:var(--color2, #333)" opacity=".03"
        d="M23.413 23.952a.41.41 0 1 0 0-.82.41.41 0 1 0 0 .82z" />
      <path fill="#fff" style="fill:var(--color1, #fff)" opacity=".44"
        d="M24.851 23.952a.411.411 0 1 0 0-.822.411.411 0 1 0 0 .822z" />
      <path fill="#333" style="fill:var(--color2, #333)" opacity=".03"
        d="M26.29 23.952a.411.411 0 1 0 0-.822.411.411 0 1 0 0 .822zM29.456 6.55h-9.209v7.861h9.209V6.55zm-2.748 9.376h-6.461v.72h6.461v-.72zm2.748 0h-2.312v.72h2.312v-.72zm-6.191 2.208h-3.018v.72h3.018v-.72zm6.191 0h-5.549v.72h5.549v-.72zm-2.235 2.209h-6.974v.72h6.974v-.72z" />
      <path fill="#efebff" style="fill:var(--color3, #efebff)" d="M15.633 4.238H3.072v20.961h12.561V4.238z" />
      <path fill="#fff" style="fill:var(--color1, #fff)" opacity=".44"
        d="M7.916 23.952a.41.41 0 1 0 0-.82.41.41 0 1 0 0 .82z" />
      <path fill="#333" style="fill:var(--color2, #333)" opacity=".03"
        d="M9.354 23.952a.41.41 0 1 0 0-.82.41.41 0 1 0 0 .82zm1.438 0a.41.41 0 1 0 0-.82.41.41 0 1 0 0 .82zM13.958 6.55H4.749v7.861h9.209V6.55zm-2.748 9.376H4.749v.72h6.461v-.72zm2.748 0h-2.312v.72h2.312v-.72zm-6.191 2.208H4.749v.72h3.018v-.72zm6.191 0H8.409v.72h5.549v-.72zm-2.235 2.209H4.749v.72h6.974v-.72z" />
      <path fill="#efebff" style="fill:var(--color3, #efebff)" d="M46.629 4.238H34.068v20.961h12.561V4.238z" />
      <path fill="#333" style="fill:var(--color2, #333)" opacity=".03"
        d="M38.911 23.952a.41.41 0 1 0 0-.82.41.41 0 1 0 0 .82zm1.438 0a.411.411 0 1 0 0-.822.411.411 0 1 0 0 .822z" />
      <path fill="#fff" style="fill:var(--color1, #fff)" opacity=".44"
        d="M41.787 23.952h.009a.411.411 0 1 0 0-.822h-.01a.41.41 0 0 0 0 .822z" />
      <path fill="#333" style="fill:var(--color2, #333)" opacity=".03"
        d="M44.953 6.55h-9.209v7.861h9.209V6.55zm-2.748 9.376h-6.461v.72h6.461v-.72zm2.748 0h-2.312v.72h2.312v-.72zm-6.19 2.208h-3.018v.72h3.018v-.72zm6.192 0h-5.549v.72h5.549v-.72zm-2.237 2.209h-6.974v.72h6.974v-.72z" />
      <path fill="#333" style="fill:var(--color2, #333)" opacity=".1"
        d="M29.137 28.828c0-.151-.32-6.339-.115-7.259s2.089-5.421 1.592-5.946c-.497-.525-2.315.67-2.315.67s.332-5.42-.453-5.806c-.785-.386-1.133 1.127-1.133 1.127l-.418 6.062-2.071 11.123 4.912.029z" />
      <path fill="#f4a28c" style="fill:var(--color4, #f4a28c)"
        d="M27.738 22.518c.264-1.057.661-2.087.915-3.154.168-.706 1.251-3.658 1.555-4.527.093-.267.174-.59-.008-.807a.526.526 0 0 0-.485-.15l.003-.001a.96.96 0 0 0-.465.243c-.302.266-.859 1.58-1.266 1.579-.493 0-.261-1.358-.274-1.619-.056-1.124.027-2.566-.412-3.622-.326-.785-1.135-.679-1.325.169s-.183 4.402-.183 4.402-3.157-.542-3.696.421c-.539.963.371 7.079.371 7.079l5.27-.012z" />
      <path fill="#633cff" style="fill:var(--color5, #633cff)"
        d="m28.123 31.901-.057-9.72-5.899-1.295-2.375 11.015h8.332z" />
      <path fill="#333" style="fill:var(--color2, #333)" opacity=".1"
        d="m28.123 31.901-.057-9.72-2.816-.619-.504 10.339h3.378z" />
    </symbol>
  </defs>
</svg>